<?xml version="1.0" encoding="UTF-8" standalone="no"?>
<svg version="1.1" xmlns="http://www.w3.org/2000/svg" xmlns:xlink="http://www.w3.org/1999/xlink" width="598.837" height="197.075">
	<g id="dp_dp001" transform="matrix(1,0,0,1,-115.395,-545.155)">
		<path id="dp_path002" fill="#094424" fill-rule="evenodd" d="M 415.307,716.884 C 437.473,689.695 539.072,736.876 574.848,740.008 C 626.964,744.571 705.296,643.271 711.433,626.792 C 698.472,619.657 693.523,616.848 688.961,609.423 C 680.793,596.125 691.536,577.141 676.433,568.792 C 669.317,564.859 659.163,562.859 644.369,561.803 C 589.56,557.891 540.756,583.951 483.735,591.368 C 459.364,594.539 432.348,563.517 431.793,562.929 C 426.489,557.38 421.187,551.829 415.883,546.28 C 410.335,551.832 404.788,557.385 399.24,562.937 C 398.685,563.525 371.669,594.547 347.299,591.376 C 290.277,583.959 241.473,557.899 186.664,561.811 C 171.871,562.867 161.716,564.867 154.6,568.8 C 139.497,577.149 150.24,596.133 142.072,609.431 C 137.511,616.856 132.561,619.665 119.6,626.8 C 125.737,643.279 204.069,744.579 256.185,740.016 C 291.961,736.884 393.14,689.695 415.307,716.884 Z M 371.324,667.213 C 338.813,672.289 273.792,682.44 242.948,675.749 C 218.701,670.489 186.26,627.067 186.26,627.067 C 193.165,621.887 206.915,611.54 219.119,608.815 C 232.161,605.903 250.364,604.167 264.512,609.595 C 289.879,619.328 344.176,651.252 371.324,667.213 Z M 452.925,668.369 C 485.436,673.444 550.457,683.596 581.301,676.905 C 605.548,671.645 637.989,628.223 637.989,628.223 C 631.084,623.043 617.335,612.696 605.131,609.971 C 592.088,607.057 573.885,605.323 559.737,610.751 C 534.371,620.483 480.073,652.408 452.925,668.369 Z "/>
		<path id="dp_path003" fill="#7b1113" fill-rule="evenodd" stroke="#df972b" stroke-width="2" d="M 415.724,715.968 C 435.273,692.749 524.875,733.04 556.427,735.715 C 602.389,739.611 671.472,653.105 676.884,639.033 C 665.453,632.94 661.088,630.541 657.065,624.201 C 649.863,612.845 659.336,596.635 646.017,589.504 C 639.741,586.145 630.785,584.437 617.739,583.536 C 569.401,580.195 526.36,602.449 476.072,608.783 C 454.579,611.491 430.753,585 430.264,584.497 C 425.585,579.759 420.909,575.019 416.232,570.28 C 411.339,575.021 406.447,579.764 401.553,584.504 C 401.065,585.007 377.239,611.497 355.745,608.789 C 305.457,602.456 262.416,580.201 214.079,583.543 C 201.032,584.444 192.076,586.152 185.8,589.511 C 172.481,596.641 181.956,612.852 174.752,624.208 C 170.729,630.548 166.364,632.948 154.933,639.04 C 160.345,653.112 229.429,739.617 275.391,735.721 C 306.943,733.047 396.175,692.749 415.724,715.968 Z M 452.925,668.369 C 485.436,673.444 550.457,683.596 581.301,676.905 C 605.548,671.645 637.989,628.223 637.989,628.223 C 631.084,623.043 617.335,612.696 605.131,609.971 C 592.088,607.057 573.885,605.323 559.737,610.751 C 534.371,620.483 480.073,652.408 452.925,668.369 Z M 371.324,667.213 C 338.813,672.289 273.792,682.44 242.948,675.749 C 218.701,670.489 186.26,627.067 186.26,627.067 C 193.165,621.887 206.915,611.54 219.119,608.815 C 232.161,605.903 250.364,604.167 264.512,609.595 C 289.879,619.328 344.176,651.252 371.324,667.213 Z "/>
		<path id="dp_path004" fill="none" fill-rule="evenodd" stroke="#00220f" stroke-width="5.33333" d="M 414.64,716.875 C 436.807,690.112 538.405,736.553 574.181,739.636 C 626.297,744.127 704.629,644.416 710.767,628.196 C 697.805,621.173 692.856,618.408 688.295,611.099 C 680.127,598.011 690.869,579.324 675.767,571.105 C 668.651,567.233 658.496,565.265 643.703,564.225 C 588.893,560.375 540.089,586.027 483.068,593.328 C 458.697,596.448 431.681,565.913 431.127,565.335 C 425.823,559.872 420.52,554.409 415.216,548.947 C 409.668,554.412 404.121,559.877 398.573,565.343 C 398.019,565.921 371.003,596.456 346.632,593.335 C 289.611,586.035 240.807,560.383 185.997,564.233 C 171.204,565.273 161.049,567.241 153.933,571.113 C 138.831,579.332 149.573,598.017 141.405,611.107 C 136.844,618.416 131.895,621.181 118.933,628.204 C 125.071,644.424 203.403,744.135 255.519,739.644 C 291.295,736.56 392.473,690.112 414.64,716.875 Z M 372.333,668.757 C 339.357,673.539 273.405,683.1 242.281,676.385 C 217.952,671.135 185.593,628.467 185.593,628.467 C 192.499,623.367 206.224,613.188 218.452,610.5 C 231.495,607.635 249.721,605.921 263.845,611.268 C 289.492,620.977 344.72,652.831 372.333,668.757 Z M 450.533,669.544 C 483.523,674.423 549.503,684.18 580.635,677.523 C 604.975,672.319 637.323,629.604 637.323,629.604 C 630.417,624.505 616.692,614.327 604.464,611.639 C 591.421,608.772 573.207,607.088 559.071,612.405 C 533.416,622.057 478.161,653.716 450.533,669.544 Z "/>
	</g>
</svg>