<?xml version="1.0" encoding="UTF-8" standalone="no"?>
<svg version="1.1" xmlns="http://www.w3.org/2000/svg" xmlns:xlink="http://www.w3.org/1999/xlink" width="975.648" height="400.916">
	<g id="dp_dp001" transform="matrix(1,0,0,1,-59.8173,-82.728)">
		<image id="dp_image002" fill="none" x="-1.504" y="-0.584" width="1075.03" height="504.105" xlink:href="Draw47EF_images/Draw47EF_001.png"/>
		<path id="dp_path003" fill="#094424" fill-rule="evenodd" stroke="#0b2218" stroke-width="16.6667" stroke-linejoin="round" stroke-linecap="round" d="M 535.752,358.708 C 567.963,319.159 715.596,387.788 767.583,392.344 C 843.313,398.98 957.137,251.629 966.056,227.66 C 947.221,217.283 940.029,213.196 933.401,202.395 C 921.533,183.052 937.143,155.439 915.197,143.293 C 904.857,137.572 890.101,134.663 868.605,133.127 C 788.961,127.436 718.044,165.344 635.185,176.132 C 599.772,180.744 560.515,135.621 559.709,134.765 C 552.001,126.693 544.296,118.62 536.589,110.548 C 528.528,118.624 520.468,126.701 512.405,134.777 C 511.6,135.633 472.343,180.756 436.929,176.144 C 354.071,165.355 283.153,127.448 203.511,133.139 C 182.013,134.675 167.257,137.584 156.917,143.305 C 134.972,155.451 150.583,183.064 138.713,202.407 C 132.085,213.207 124.893,217.293 106.059,227.672 C 114.977,251.641 228.801,398.992 304.532,392.355 C 356.519,387.8 503.541,319.159 535.752,358.708 Z M 471.841,286.457 C 424.599,293.84 330.116,308.605 285.297,298.873 C 250.064,291.223 202.923,228.06 202.923,228.06 C 212.957,220.525 232.936,205.475 250.671,201.511 C 269.623,197.275 296.073,194.749 316.632,202.645 C 353.492,216.803 432.392,263.24 471.841,286.457 Z M 590.416,288.139 C 637.657,295.52 732.14,310.287 776.96,300.555 C 812.193,292.904 859.333,229.741 859.333,229.741 C 849.3,222.207 829.32,207.156 811.587,203.192 C 792.635,198.955 766.184,196.431 745.625,204.327 C 708.765,218.483 629.865,264.921 590.416,288.139 Z "/>
		<image id="dp_image004" fill="none" x="61.932" y="46.3587" width="948.159" height="438.977" xlink:href="Draw47EF_images/Draw47EF_002.png"/>
		<path id="dp_path005" fill="#59090a" fill-rule="evenodd" stroke="#df972b" stroke-width="2" stroke-linejoin="round" stroke-linecap="round" d="M 535.789,357.375 C 564.196,323.601 694.396,382.208 740.245,386.099 C 807.033,391.765 907.419,265.936 915.283,245.467 C 898.672,236.603 892.329,233.113 886.484,223.892 C 876.017,207.373 889.783,183.793 870.429,173.421 C 861.311,168.536 848.296,166.051 829.337,164.74 C 759.099,159.88 696.555,192.252 623.481,201.464 C 592.249,205.403 557.628,166.869 556.917,166.139 C 550.119,159.245 543.324,152.351 536.527,145.459 C 529.417,152.355 522.308,159.253 515.197,166.148 C 514.488,166.88 479.865,205.412 448.633,201.473 C 375.56,192.261 313.016,159.889 242.777,164.749 C 223.819,166.061 210.804,168.545 201.685,173.431 C 182.332,183.803 196.099,207.383 185.631,223.901 C 179.785,233.124 173.443,236.615 156.832,245.476 C 164.696,265.945 265.083,391.775 331.869,386.108 C 377.719,382.217 507.381,323.601 535.789,357.375 Z M 589.847,288.139 C 637.088,295.52 731.571,310.287 776.391,300.555 C 811.624,292.904 858.764,229.741 858.764,229.741 C 848.731,222.207 828.751,207.156 811.017,203.192 C 792.065,198.955 765.615,196.431 745.056,204.327 C 708.195,218.483 629.296,264.921 589.847,288.139 Z M 471.271,286.457 C 424.029,293.84 329.547,308.605 284.727,298.873 C 249.495,291.223 202.353,228.06 202.353,228.06 C 212.388,220.525 232.367,205.475 250.1,201.511 C 269.053,197.275 295.503,194.749 316.061,202.645 C 352.923,216.803 431.823,263.24 471.271,286.457 Z "/>
		<image id="dp_image006" fill="none" x="288.611" y="296.72" width="75.2773" height="95.1533" xlink:href="Draw47EF_images/Draw47EF_003.png"/>
	</g>
	<text id="dp_text001" transform="matrix(1.00151,0,0,1,247.061,282.548)" xml:space="preserve" fill="#df972b" font-family="Baybayin Modern Sinta" font-size="64" font-weight="400" x="0" y="0">K</text>
	<image id="dp_image008" transform="matrix(1,0,0,1,-59.8173,-82.728)" fill="none" x="322.867" y="290.799" width="109.956" height="108.264" xlink:href="Draw47EF_images/Draw47EF_004.png"/>
	<text id="dp_text002" transform="matrix(0.890421,-0.455137,0.454399,0.890799,306.662,291.7)" xml:space="preserve" fill="#df972b" font-family="Baybayin Modern Sinta" font-size="64" font-weight="400" x="0" y="0">A</text>
	<image id="dp_image010" transform="matrix(1,0,0,1,-59.8173,-82.728)" fill="none" x="365.58" y="269.653" width="102.767" height="106.573" xlink:href="Draw47EF_images/Draw47EF_005.png"/>
	<text id="dp_text003" transform="matrix(0.944842,-0.331588,0.330543,0.943791,342.071,267.854)" xml:space="preserve" fill="#df972b" font-family="Baybayin Modern Sinta" font-size="64" font-weight="400" x="0" y="0">S</text>
	<image id="dp_image012" transform="matrix(1,0,0,1,-59.8173,-82.728)" fill="none" x="427.748" y="262.041" width="102.765" height="106.149" xlink:href="Draw47EF_images/Draw47EF_006.png"/>
	<text id="dp_text004" transform="matrix(0.94358,-0.331145,0.330543,0.943791,405.823,259.458)" xml:space="preserve" fill="#df972b" font-family="Baybayin Modern Sinta" font-size="64" font-weight="400" x="0" y="0">I</text>
	<image id="dp_image014" transform="matrix(1,0,0,1,-59.8173,-82.728)" fill="none" x="501.756" y="247.239" width="86.696" height="137.023" xlink:href="Draw47EF_images/Draw47EF_007.png"/>
	<text id="dp_text005" transform="matrix(0.990461,-0.1503,0.149731,0.988727,463.33,259.871)" xml:space="preserve" fill="#df972b" font-family="Baybayin Modern Sinta" font-size="70" font-weight="400" x="0" y="0">M</text>
	<image id="dp_image016" transform="matrix(1,0,0,1,-59.8173,-82.728)" fill="none" x="556.735" y="275.575" width="98.1147" height="104.457" xlink:href="Draw47EF_images/Draw47EF_008.png"/>
	<text id="dp_text006" transform="matrix(0.96649,0.256703,-0.256213,0.96662,517.69,259.482)" xml:space="preserve" fill="#df972b" font-family="Baybayin Modern Sinta" font-size="64" font-weight="400" x="0" y="0">A</text>
	<image id="dp_image018" transform="matrix(1,0,0,1,-59.8173,-82.728)" fill="none" x="604.945" y="279.38" width="109.956" height="108.688" xlink:href="Draw47EF_images/Draw47EF_009.png"/>
	<text id="dp_text007" transform="matrix(0.950612,0.314154,-0.313206,0.949685,568.749,262.835)" xml:space="preserve" fill="#df972b" font-family="Baybayin Modern Sinta" font-size="64" font-weight="400" x="0" y="0">N</text>
	<image id="dp_image020" transform="matrix(1,0,0,1,-59.8173,-82.728)" fill="none" x="661.615" y="294.605" width="89.6573" height="102.343" xlink:href="Draw47EF_images/Draw47EF_010.png"/>
	<text id="dp_text008" transform="matrix(0.949494,0.313785,-0.313206,0.949685,623.677,277.671)" xml:space="preserve" fill="#df972b" font-family="Baybayin Modern Sinta" font-size="64" font-weight="400" x="0" y="0">W</text>
	<image id="dp_image022" transform="matrix(1,0,0,1,-59.8173,-82.728)" fill="none" x="698.831" y="303.487" width="97.692" height="104.457" xlink:href="Draw47EF_images/Draw47EF_011.png"/>
	<text id="dp_text009" transform="matrix(0.969214,0.246221,-0.245748,0.969334,659.702,287.605)" xml:space="preserve" fill="#df972b" font-family="Baybayin Modern Sinta" font-size="64" font-weight="400" x="0" y="0">A</text>
	<text id="dp_text010" transform="matrix(0.728872,-0.61898,0.646538,0.762882,182.773,267.509)" xml:space="preserve" fill="black" stroke="#df972b" stroke-width="2" font-family="Baybayin Modern Sinta" font-size="207" font-weight="400" x="0" y="0">U</text>
	<path id="dp_path025" transform="matrix(1,0,0,1,-59.8173,-82.728)" fill="none" fill-rule="evenodd" stroke="#df972b" stroke-width="2" d="M 459.512,224.78 C 465.959,216.035 466.083,207.889 454.543,202.692 C 463.413,203.692 478.124,206.892 468.636,223.343 C 478.953,222.317 497.268,222.428 502.284,238.779 C 503.511,242.779 503.42,249.217 501.701,253.257 C 495.935,266.811 478.137,267.252 470.551,265.245 C 466.233,264.103 463.427,260.212 456.972,260.467 C 454.06,260.58 452.753,263.676 453.789,268.253 C 454.708,272.311 456.445,275.064 457.876,277.432 C 460.887,282.225 436.956,266.295 449.515,255.459 C 458.647,247.579 473.933,264.925 489.495,255.808 C 494.515,252.867 498.812,242.336 492.556,235.525 C 488.844,231.483 483.601,230.767 481.007,230.507 C 466.216,229.025 436.347,236.876 417.205,236.837 C 406.091,236.815 389.863,231.157 385.781,223.744 C 378.472,210.463 394.307,190.776 394.101,192.368 S 388.917,207.036 388.672,213.585 C 388.4,220.928 392.892,224.025 396.44,225.919 C 411.303,233.849 437.917,228.999 459.512,224.78"/>
	<text id="dp_text011" transform="matrix(-0.823834,-0.699624,-0.646538,0.762882,768.775,268.18)" xml:space="preserve" fill="black" stroke="#df972b" stroke-width="2" font-family="Baybayin Modern Sinta" font-size="207" font-weight="400" x="0" y="0">U</text>
	<g id="dp_dp027" transform="matrix(1,0,0,1,-59.8173,-82.728)">
		<path id="dp_path028" fill="none" fill-rule="evenodd" stroke="#df972b" stroke-width="2" d="M 606.347,224.78 C 599.9,216.035 599.776,207.889 611.316,202.692 C 602.445,203.692 587.735,206.892 597.223,223.343 C 586.905,222.317 568.591,222.428 563.575,238.779 C 562.348,242.779 562.439,249.217 564.157,253.257 C 569.924,266.811 587.721,267.252 595.308,265.245 C 599.625,264.103 602.432,260.212 608.887,260.467 C 611.799,260.58 613.105,263.676 612.069,268.253 C 611.151,272.311 609.413,275.064 607.983,277.432 C 604.972,282.225 628.903,266.295 616.344,255.459 C 607.212,247.579 591.925,264.925 576.364,255.808 C 571.344,252.867 567.047,242.336 573.303,235.525 C 577.015,231.483 582.257,230.767 584.852,230.507 C 599.643,229.025 629.512,236.876 648.653,236.837 C 659.768,236.815 675.996,231.157 680.077,223.744 C 687.387,210.463 671.552,190.776 671.757,192.368 S 676.941,207.036 677.187,213.585 C 677.459,220.928 672.967,224.025 669.419,225.919 C 654.556,233.849 627.941,228.999 606.347,224.78"/>
		<image id="dp_image029" fill="none" x="66.1613" y="51.4333" width="939.701" height="430.097" xlink:href="Draw47EF_images/Draw47EF_012.png"/>
	</g>
	<image id="dp_image030" transform="matrix(1,0,0,1,-59.6293,-82.4667)" fill="none" x="65.128" y="49.9027" width="939.7" height="430.097" xlink:href="Draw47EF_images/Draw47EF_013.png"/>
</svg>